<svg xmlns="http://www.w3.org/2000/svg" xmlns:xlink="http://www.w3.org/1999/xlink" xmlns:lucid="lucid" width="438.67" height="300.67"><g transform="translate(-122.66666666662786 -169.33333333333334)" lucid:page-tab-id="0_0"><path d="M0 0h1760v1360H0z" fill="#fff"/><path d="M142.67 200c0-3.3 2.68-6 6-6h386.66c3.32 0 6 2.7 6 6v244c0 3.3-2.68 6-6 6H148.67c-3.32 0-6-2.7-6-6z" stroke="#5e5e5e" stroke-width="3"/><path d="M182 300h56M182.05 300H180M237.95 300H240" stroke="#7ab648" stroke-width="4" fill="none"/><path d="M182 400h76M182.05 400H180M257.95 400H260" stroke="#c92d39" stroke-width="4" fill="none"/><path d="M242 320h56M242.05 320H240M297.95 320H300M302 260h56M302.05 260H300M357.95 260H360M362 300l56-.08M362.05 300H360M417.95 299.92H420" stroke="#7ab648" stroke-width="4" fill="none"/><path d="M262 360h76M262.05 360H260M337.95 360H340M342 340h76M342.05 340H340M417.95 340H420M422 380h56M422.05 380H420M477.95 380H480" stroke="#c92d39" stroke-width="4" fill="none"/><path d="M240 302v16M240 302.05V300M240 317.95V320M300 318v-56M300 317.95V320M300 262.05V260M360 298v-36M360 297.95V300M360 262.05V260" stroke="#7ab648" stroke-width="4" fill="none"/><path d="M260 398v-36M260 397.95V400M260 362.05V360M340 342v16M340 342.05V340M340 357.95V360M420 342v36M420 342.05V340M420 377.95V380" stroke="#c92d39" stroke-width="4" fill="none"/><path d="M422 280h56M422.05 280H420M477.95 280H480M420 297.92V282M420 297.87v2.05M420 282.05V280" stroke="#7ab648" stroke-width="4" fill="none"/><path d="M484 383.33c0 5.53-4.48 10-10 10s-10-4.47-10-10c0-5.52 4.48-10 10-10s10 4.48 10 10z" stroke="#7769e0" stroke-width="2" fill="url(#a)"/><path d="M482.67 282c0 5.52-4.48 10-10 10-5.53 0-10-4.48-10-10s4.47-10 10-10c5.52 0 10 4.48 10 10z" stroke="#7769e0" stroke-width="2" fill="url(#b)"/><path d="M220 350c0 5.52-4.48 10-10 10s-10-4.48-10-10 4.48-10 10-10 10 4.48 10 10zm-17.07-7.07l14.14 14.14m-14.14 0l14.14-14.14M260 330c0 5.52-4.48 10-10 10s-10-4.48-10-10 4.48-10 10-10 10 4.48 10 10zm-17.07-7.07l14.14 14.14m-14.14 0l14.14-14.14M316 375.33c0 5.53-4.48 10-10 10s-10-4.47-10-10c0-5.52 4.48-10 10-10s10 4.48 10 10zm-17.07-7.07l14.14 14.15m-14.14 0l14.14-14.14M341.33 316.67c0 5.52-4.47 10-10 10-5.52 0-10-4.48-10-10 0-5.53 4.48-10 10-10 5.53 0 10 4.47 10 10zm-17.07-7.08l14.15 14.14m-14.14 0l14.15-14.15M398.67 318c0 5.52-4.48 10-10 10-5.53 0-10-4.48-10-10s4.47-10 10-10c5.52 0 10 4.48 10 10zm-17.08-7.07l14.14 14.14m-14.15 0l14.14-14.14M446.67 268.67c0 5.52-4.48 10-10 10-5.53 0-10-4.48-10-10 0-5.53 4.47-10 10-10 5.52 0 10 4.47 10 10zm-17.08-7.08l14.14 14.14m-14.15 0l14.14-14.15M484 348.67c0 5.52-4.48 10-10 10s-10-4.48-10-10c0-5.53 4.48-10 10-10s10 4.47 10 10zm-17.07-7.08l14.14 14.14m-14.14 0l14.14-14.15" stroke="#0c7cba" stroke-width="3" fill="#fff"/><path d="M314.67 358c0 5.52-4.48 10-10 10-5.53 0-10-4.48-10-10s4.47-10 10-10c5.52 0 10 4.48 10 10z" stroke="#7769e0" stroke-width="2" fill="url(#c)"/><path d="M340 264.67c0 5.52-4.48 10-10 10s-10-4.48-10-10c0-5.53 4.48-10 10-10s10 4.47 10 10z" stroke="#7769e0" stroke-width="2" fill="url(#d)"/><path d="M342.67 360.67c0 5.52-4.48 10-10 10-5.53 0-10-4.48-10-10 0-5.53 4.47-10 10-10 5.52 0 10 4.47 10 10z" stroke="#7769e0" stroke-width="2" fill="url(#e)"/><path d="M398.67 299.33c0 5.53-4.48 10-10 10-5.53 0-10-4.47-10-10 0-5.52 4.47-10 10-10 5.52 0 10 4.48 10 10z" stroke="#7769e0" stroke-width="2" fill="url(#f)"/><path d="M398.67 338c0 5.52-4.48 10-10 10-5.53 0-10-4.48-10-10s4.47-10 10-10c5.52 0 10 4.48 10 10z" stroke="#7769e0" stroke-width="2" fill="url(#g)"/><path d="M450.67 382c0 5.52-4.48 10-10 10-5.53 0-10-4.48-10-10s4.47-10 10-10c5.52 0 10 4.48 10 10z" stroke="#7769e0" stroke-width="2" fill="url(#h)"/><path d="M446.67 283.33c0 5.53-4.48 10-10 10-5.53 0-10-4.47-10-10 0-5.52 4.47-10 10-10 5.52 0 10 4.48 10 10z" stroke="#7769e0" stroke-width="2" fill="url(#i)"/><path d="M220 299.33c0 5.53-4.48 10-10 10s-10-4.47-10-10c0-5.52 4.48-10 10-10s10 4.48 10 10z" stroke="#7769e0" stroke-width="2" fill="url(#j)"/><path d="M220 400.67c0 5.52-4.48 10-10 10s-10-4.48-10-10c0-5.53 4.48-10 10-10s10 4.47 10 10z" stroke="#7769e0" stroke-width="2" fill="url(#k)"/><path d="M258.67 315.33c0 5.53-4.48 10-10 10-5.53 0-10-4.47-10-10 0-5.52 4.47-10 10-10 5.52 0 10 4.48 10 10z" stroke="#7769e0" stroke-width="2" fill="url(#l)"/><path d="M261.33 400.67c0 5.52-4.47 10-10 10-5.52 0-10-4.48-10-10 0-5.53 4.48-10 10-10 5.53 0 10 4.47 10 10z" stroke="#7769e0" stroke-width="2" fill="url(#m)"/><path d="M314.67 319.33c0 5.53-4.48 10-10 10-5.53 0-10-4.47-10-10 0-5.52 4.47-10 10-10 5.52 0 10 4.48 10 10z" stroke="#7769e0" stroke-width="2" fill="url(#n)"/><path d="M273.33 195.33c0-3.3 2.7-6 6-6h125.34c3.3 0 6 2.7 6 6v16c0 3.32-2.7 6-6 6H279.33c-3.3 0-6-2.68-6-6z" stroke="#000" stroke-opacity="0" stroke-width="3" fill="#fff" fill-opacity="0"/><use xlink:href="#o" transform="matrix(1,0,0,1,278.33333333337214,194.33333333333334) translate(-6.776909722222172 43.10004340277774)"/><defs><radialGradient gradientUnits="userSpaceOnUse" id="a" fx="474" fy="383.33" cx="474" cy="383.33" r="10.27"><stop offset="0%" stop-color="#7b6ee1" stop-opacity=".4"/><stop offset="60%" stop-color="#7769e0" stop-opacity=".6"/><stop offset="100%" stop-color="#7668dd"/></radialGradient><radialGradient gradientUnits="userSpaceOnUse" id="b" fx="472.67" fy="282" cx="472.67" cy="282" r="10.27"><stop offset="0%" stop-color="#7b6ee1" stop-opacity=".4"/><stop offset="60%" stop-color="#7769e0" stop-opacity=".6"/><stop offset="100%" stop-color="#7668dd"/></radialGradient><radialGradient gradientUnits="userSpaceOnUse" id="c" fx="304.67" fy="358" cx="304.67" cy="358" r="10.27"><stop offset="0%" stop-color="#7b6ee1" stop-opacity=".4"/><stop offset="60%" stop-color="#7769e0" stop-opacity=".6"/><stop offset="100%" stop-color="#7668dd"/></radialGradient><radialGradient gradientUnits="userSpaceOnUse" id="d" fx="330" fy="264.67" cx="330" cy="264.67" r="10.27"><stop offset="0%" stop-color="#7b6ee1" stop-opacity=".4"/><stop offset="60%" stop-color="#7769e0" stop-opacity=".6"/><stop offset="100%" stop-color="#7668dd"/></radialGradient><radialGradient gradientUnits="userSpaceOnUse" id="e" fx="332.67" fy="360.67" cx="332.67" cy="360.67" r="10.27"><stop offset="0%" stop-color="#7b6ee1" stop-opacity=".4"/><stop offset="60%" stop-color="#7769e0" stop-opacity=".6"/><stop offset="100%" stop-color="#7668dd"/></radialGradient><radialGradient gradientUnits="userSpaceOnUse" id="f" fx="388.67" fy="299.33" cx="388.67" cy="299.33" r="10.27"><stop offset="0%" stop-color="#7b6ee1" stop-opacity=".4"/><stop offset="60%" stop-color="#7769e0" stop-opacity=".6"/><stop offset="100%" stop-color="#7668dd"/></radialGradient><radialGradient gradientUnits="userSpaceOnUse" id="g" fx="388.67" fy="338" cx="388.67" cy="338" r="10.27"><stop offset="0%" stop-color="#7b6ee1" stop-opacity=".4"/><stop offset="60%" stop-color="#7769e0" stop-opacity=".6"/><stop offset="100%" stop-color="#7668dd"/></radialGradient><radialGradient gradientUnits="userSpaceOnUse" id="h" fx="440.67" fy="382" cx="440.67" cy="382" r="10.27"><stop offset="0%" stop-color="#7b6ee1" stop-opacity=".4"/><stop offset="60%" stop-color="#7769e0" stop-opacity=".6"/><stop offset="100%" stop-color="#7668dd"/></radialGradient><radialGradient gradientUnits="userSpaceOnUse" id="i" fx="436.67" fy="283.33" cx="436.67" cy="283.33" r="10.27"><stop offset="0%" stop-color="#7b6ee1" stop-opacity=".4"/><stop offset="60%" stop-color="#7769e0" stop-opacity=".6"/><stop offset="100%" stop-color="#7668dd"/></radialGradient><radialGradient gradientUnits="userSpaceOnUse" id="j" fx="210" fy="299.33" cx="210" cy="299.33" r="10.27"><stop offset="0%" stop-color="#7b6ee1" stop-opacity=".4"/><stop offset="60%" stop-color="#7769e0" stop-opacity=".6"/><stop offset="100%" stop-color="#7668dd"/></radialGradient><radialGradient gradientUnits="userSpaceOnUse" id="k" fx="210" fy="400.67" cx="210" cy="400.67" r="10.27"><stop offset="0%" stop-color="#7b6ee1" stop-opacity=".4"/><stop offset="60%" stop-color="#7769e0" stop-opacity=".6"/><stop offset="100%" stop-color="#7668dd"/></radialGradient><radialGradient gradientUnits="userSpaceOnUse" id="l" fx="248.67" fy="315.33" cx="248.67" cy="315.33" r="10.27"><stop offset="0%" stop-color="#7b6ee1" stop-opacity=".4"/><stop offset="60%" stop-color="#7769e0" stop-opacity=".6"/><stop offset="100%" stop-color="#7668dd"/></radialGradient><radialGradient gradientUnits="userSpaceOnUse" id="m" fx="251.33" fy="400.67" cx="251.33" cy="400.67" r="10.27"><stop offset="0%" stop-color="#7b6ee1" stop-opacity=".4"/><stop offset="60%" stop-color="#7769e0" stop-opacity=".6"/><stop offset="100%" stop-color="#7668dd"/></radialGradient><radialGradient gradientUnits="userSpaceOnUse" id="n" fx="304.67" fy="319.33" cx="304.67" cy="319.33" r="10.27"><stop offset="0%" stop-color="#7b6ee1" stop-opacity=".4"/><stop offset="60%" stop-color="#7769e0" stop-opacity=".6"/><stop offset="100%" stop-color="#7668dd"/></radialGradient><path fill="#fff" d="M395 0C260 4 152-110 152-245v-560H6v-165c76 0 121-15 136-44 7-13 10-65 10-156h165v200h235v165H317v560c-9 115 138 72 235 80V0H395" id="p"/><path fill="#fff" d="M816-616c-46-109-154-210-294-210-133 0-258 109-301 210h595zM31-484c0-260 230-507 491-507 282 0 495 254 487 541H196c10 148 163 311 326 306 147-5 277-104 326-215l166 28C947-150 753 16 522 21 260 27 31-223 31-484" id="q"/><path fill="#fff" d="M1018-991c257 0 359 224 359 507V0h-166v-484c0-228-64-342-193-342-155-1-215 166-215 342V0H637l-1-484c0-228-64-342-193-342-159-1-225 164-225 342V0H53v-970h165v68c59-59 134-89 225-89 133 0 229 56 286 168 46-112 142-168 289-168" id="r"/><path fill="#fff" d="M223-484c0 174 142 340 313 340 169 0 319-168 319-340 0-174-147-342-319-342-173 0-313 166-313 342zm798 0c0 261-225 505-485 505-129 0-235-50-318-149v516H53V-970h165v128c83-99 189-149 318-149 260 0 485 246 485 507" id="s"/><path fill="#fff" d="M838-484c0-173-151-342-322-342-177 0-319 167-319 342 0 176 146 340 319 340 171 0 322-167 322-340zm-807 0c0-265 224-507 485-507 260 0 487 246 487 507 0 260-229 505-487 505C255 21 31-224 31-484" id="t"/><g id="o"><use transform="matrix(0.024956597222222203,0,0,0.024956597222222203,0,0)" xlink:href="#p"/><use transform="matrix(0.024956597222222203,0,0,0.024956597222222203,16.022135416666654,0)" xlink:href="#q"/><use transform="matrix(0.024956597222222203,0,0,0.024956597222222203,44.8470052083333,0)" xlink:href="#r"/><use transform="matrix(0.024956597222222203,0,0,0.024956597222222203,84.20355902777771,0)" xlink:href="#s"/><use transform="matrix(0.024956597222222203,0,0,0.024956597222222203,112.72894965277769,0)" xlink:href="#t"/></g></defs></g></svg>