<svg xmlns="http://www.w3.org/2000/svg" xmlns:xlink="http://www.w3.org/1999/xlink" xmlns:lucid="lucid" width="438.67" height="296"><g transform="translate(-122.66666666662786 -174)" lucid:page-tab-id="0_0"><path d="M0 0h1760v1360H0z" fill="#fff"/><path d="M142.67 200c0-3.3 2.68-6 6-6h386.66c3.32 0 6 2.7 6 6v244c0 3.3-2.68 6-6 6H148.67c-3.32 0-6-2.7-6-6z" stroke="#5e5e5e" stroke-width="3"/><path d="M182 300h56M182.05 300H180M237.95 300H240" stroke="#19967d" stroke-width="4" fill="none"/><path d="M182 400h76M182.05 400H180M257.95 400H260" stroke="#c92d39" stroke-width="4" fill="none"/><path d="M242 320h56M242.05 320H240M297.95 320H300M302 260h56M302.05 260H300M357.95 260H360M362 300l56-.08M362.05 300H360M417.95 299.92H420" stroke="#19967d" stroke-width="4" fill="none"/><path d="M262 360h76M262.05 360H260M337.95 360H340M342 340h76M342.05 340H340M417.95 340H420M422 380h56M422.05 380H420M477.95 380H480" stroke="#c92d39" stroke-width="4" fill="none"/><path d="M240 302v16M240 302.05V300M240 317.95V320M300 318v-56M300 317.95V320M300 262.05V260M360 298v-36M360 297.95V300M360 262.05V260" stroke="#19967d" stroke-width="4" fill="none"/><path d="M260 398v-36M260 397.95V400M260 362.05V360M340 342v16M340 342.05V340M340 357.95V360M420 342v36M420 342.05V340M420 377.95V380" stroke="#c92d39" stroke-width="4" fill="none"/><path d="M422 280h56M422.05 280H420M477.95 280H480M420 297.92V282M420 297.87v2.05M420 282.05V280" stroke="#19967d" stroke-width="4" fill="none"/><path d="M484 383.33c0 5.53-4.48 10-10 10s-10-4.47-10-10c0-5.52 4.48-10 10-10s10 4.48 10 10z" stroke="#ffbbb1" stroke-width="2" fill="url(#a)"/><path d="M482.67 282c0 5.52-4.48 10-10 10-5.53 0-10-4.48-10-10s4.47-10 10-10c5.52 0 10 4.48 10 10z" stroke="#c7e8ac" stroke-width="2" fill="url(#b)"/><path d="M314.67 358c0 5.52-4.48 10-10 10-5.53 0-10-4.48-10-10s4.47-10 10-10c5.52 0 10 4.48 10 10z" stroke="#ffbbb1" stroke-width="2" fill="url(#c)"/><path d="M398.67 299.33c0 5.53-4.48 10-10 10-5.53 0-10-4.47-10-10 0-5.52 4.47-10 10-10 5.52 0 10 4.48 10 10z" stroke="#c7e8ac" stroke-width="2" fill="url(#d)"/><path d="M398.67 338c0 5.52-4.48 10-10 10-5.53 0-10-4.48-10-10s4.47-10 10-10c5.52 0 10 4.48 10 10z" stroke="#ffbbb1" stroke-width="2" fill="url(#e)"/><path d="M314.67 319.33c0 5.53-4.48 10-10 10-5.53 0-10-4.47-10-10 0-5.52 4.47-10 10-10 5.52 0 10 4.48 10 10z" stroke="#c7e8ac" stroke-width="2" fill="url(#f)"/><path d="M273.33 204.67c0-3.32 2.7-6 6-6h125.34c3.3 0 6 2.68 6 6v16c0 3.3-2.7 6-6 6H279.33c-3.3 0-6-2.7-6-6z" stroke="#000" stroke-opacity="0" stroke-width="3" fill="#fff" fill-opacity="0"/><use xlink:href="#g" transform="matrix(1,0,0,1,278.33333333337214,203.66666666666669) translate(-21.466666666666598 37.3333333333333)"/><defs><radialGradient gradientUnits="userSpaceOnUse" id="a" fx="474" fy="383.33" cx="474" cy="383.33" r="10.27"><stop offset="0%" stop-color="#ffbdb3" stop-opacity=".4"/><stop offset="60%" stop-color="#ffbbb1" stop-opacity=".6"/><stop offset="100%" stop-color="#fcb9af"/></radialGradient><radialGradient gradientUnits="userSpaceOnUse" id="b" fx="472.67" fy="282" cx="472.67" cy="282" r="10.27"><stop offset="0%" stop-color="#c9e9af" stop-opacity=".4"/><stop offset="60%" stop-color="#c7e8ac" stop-opacity=".6"/><stop offset="100%" stop-color="#c5e5aa"/></radialGradient><radialGradient gradientUnits="userSpaceOnUse" id="c" fx="304.67" fy="358" cx="304.67" cy="358" r="10.27"><stop offset="0%" stop-color="#ffbdb3" stop-opacity=".4"/><stop offset="60%" stop-color="#ffbbb1" stop-opacity=".6"/><stop offset="100%" stop-color="#fcb9af"/></radialGradient><radialGradient gradientUnits="userSpaceOnUse" id="d" fx="388.67" fy="299.33" cx="388.67" cy="299.33" r="10.27"><stop offset="0%" stop-color="#c9e9af" stop-opacity=".4"/><stop offset="60%" stop-color="#c7e8ac" stop-opacity=".6"/><stop offset="100%" stop-color="#c5e5aa"/></radialGradient><radialGradient gradientUnits="userSpaceOnUse" id="e" fx="388.67" fy="338" cx="388.67" cy="338" r="10.27"><stop offset="0%" stop-color="#ffbdb3" stop-opacity=".4"/><stop offset="60%" stop-color="#ffbbb1" stop-opacity=".6"/><stop offset="100%" stop-color="#fcb9af"/></radialGradient><radialGradient gradientUnits="userSpaceOnUse" id="f" fx="304.67" fy="319.33" cx="304.67" cy="319.33" r="10.27"><stop offset="0%" stop-color="#c9e9af" stop-opacity=".4"/><stop offset="60%" stop-color="#c7e8ac" stop-opacity=".6"/><stop offset="100%" stop-color="#c5e5aa"/></radialGradient><path fill="#fff" d="M177-490c34 3 87-12 87 24 0 35-53 21-87 24v357c3 48 61 22 61 61 0 12-13 24-25 24-49 0-86-36-86-85v-357c-29-3-93 11-85-24-8-35 56-22 85-24v-182c0-31 50-30 50 0v182" id="h"/><path fill="#fff" d="M296-490c127 0 228 101 236 232 0 13-11 22-24 22H106c5 107 89 188 190 188 65 0 125-34 158-89 17-28 56 1 40 26C451-44 379 0 296 0 164 0 58-110 58-244c0-136 106-246 238-246zm0 48c-92 0-169 66-187 159h371c-16-92-94-159-184-159" id="i"/><path fill="#fff" d="M491-23c1 26-42 30-48 8-2-88 0-184-1-275 0-83-67-152-151-152s-151 69-151 152v267c2 26-47 32-47 5v-448c0-30 47-29 47 0v47c36-43 90-70 151-70 76 0 141 42 175 104 35-62 101-104 176-104 110 0 199 89 199 199v267c0 12-10 23-24 23-13 0-23-11-23-23v-267c-2-83-68-152-152-152-83 0-151 69-151 152v267" id="j"/><path fill="#fff" d="M93 181v-647c0-31 49-31 49 0v71c42-57 110-95 186-95 132 0 237 109 237 243C565-114 460-3 328-3c-76 0-144-38-186-96v280c2 30-49 31-49 0zm235-622c-101 1-186 84-186 194 0 108 85 196 186 196 104 0 188-88 188-196s-84-194-188-194" id="k"/><path fill="#fff" d="M70-245c0-133 104-245 232-245 129 0 232 112 232 245S431 0 302 0C174 0 70-112 70-245zm48 0c0 109 84 197 184 197s184-88 184-197-84-198-184-198-184 89-184 198" id="l"/><g id="g"><use transform="matrix(0.05333333333333329,0,0,0.05333333333333329,0,0)" xlink:href="#h"/><use transform="matrix(0.05333333333333329,0,0,0.05333333333333329,19.19999999999998,0)" xlink:href="#i"/><use transform="matrix(0.05333333333333329,0,0,0.05333333333333329,51.67999999999996,0)" xlink:href="#j"/><use transform="matrix(0.05333333333333329,0,0,0.05333333333333329,102.39999999999992,0)" xlink:href="#k"/><use transform="matrix(0.05333333333333329,0,0,0.05333333333333329,137.59999999999988,0)" xlink:href="#l"/></g></defs></g></svg>