<svg width="150" height="150" viewBox="0 0 150 150" fill="none" xmlns="http://www.w3.org/2000/svg">
<path d="M105.7 128.44V118C105.706 117.205 105.921 116.425 106.325 115.74C106.729 115.056 107.307 114.49 108 114.1L113.78 110.78C111.262 108.442 109.758 105.212 109.59 101.78C109.59 96.21 113.18 92.29 118.14 92.29C123.1 92.29 126.67 96.21 126.67 101.78C126.501 105.21 125.002 108.438 122.49 110.78L128.26 114.1C128.947 114.491 129.518 115.057 129.915 115.74C130.312 116.423 130.521 117.2 130.52 117.99V128.74" stroke="#FF3621" stroke-width="3" stroke-linejoin="bevel"/>
<path d="M91.38 128.74C85.1659 130.987 78.6078 132.134 72 132.13C60.6986 132.14 49.6482 128.798 40.2466 122.526C30.8451 116.255 23.5148 107.336 19.1831 96.8974C14.8514 86.4591 13.7129 74.9706 15.9116 63.8852C18.1103 52.7997 23.5475 42.6155 31.5353 34.6207C39.5231 26.6259 49.7026 21.1799 60.7861 18.9714C71.8696 16.763 83.3591 17.8914 93.8011 22.214C104.243 26.5366 113.169 33.859 119.448 43.2551C125.728 52.6511 129.08 63.6986 129.08 75" stroke="#FF3621" stroke-width="3" stroke-miterlimit="10"/>
<path d="M86.86 72.18C91.1071 72.18 94.55 68.7371 94.55 64.49C94.55 60.2429 91.1071 56.8 86.86 56.8C82.6129 56.8 79.17 60.2429 79.17 64.49C79.17 68.7371 82.6129 72.18 86.86 72.18Z" stroke="#FF3621" stroke-width="3" stroke-miterlimit="10"/>
<path d="M67.78 55.08C72.0271 55.08 75.47 51.6371 75.47 47.39C75.47 43.1429 72.0271 39.7 67.78 39.7C63.5329 39.7 60.09 43.1429 60.09 47.39C60.09 51.6371 63.5329 55.08 67.78 55.08Z" stroke="#FF3621" stroke-width="3" stroke-miterlimit="10"/>
<path d="M47.43 75.02C51.6771 75.02 55.12 71.5771 55.12 67.33C55.12 63.0829 51.6771 59.64 47.43 59.64C43.1829 59.64 39.74 63.0829 39.74 67.33C39.74 71.5771 43.1829 75.02 47.43 75.02Z" stroke="#FF3621" stroke-width="3" stroke-miterlimit="10"/>
<path d="M70.51 110.49C74.7571 110.49 78.2 107.047 78.2 102.8C78.2 98.5529 74.7571 95.11 70.51 95.11C66.2629 95.11 62.82 98.5529 62.82 102.8C62.82 107.047 66.2629 110.49 70.51 110.49Z" stroke="#FF3621" stroke-width="3" stroke-miterlimit="10"/>
<path d="M47.43 75.02V85.61L64.17 98.45" stroke="#FF3621" stroke-width="3" stroke-miterlimit="10"/>
<path d="M92 70.14L101.18 77.24C94.4477 81.0886 89.2858 87.1852 86.6 94.46L67.78 79.35V55.07" stroke="#FF3621" stroke-width="3" stroke-miterlimit="10"/>
<path d="M67.78 39.7V30.42C56.7289 31.456 46.4619 36.5782 38.9881 44.7845C31.5143 52.9907 27.3713 63.6904 27.37 74.79C27.37 96.51 45.05 117.9 70.5 120.31V110.48" stroke="#FF3621" stroke-width="3" stroke-miterlimit="10"/>
<path d="M86.86 56.8V32.8C95.367 35.8053 102.766 41.313 108.086 48.5998C113.406 55.8866 116.399 64.6118 116.67 73.63V82.29C110.65 82.7011 104.985 85.2904 100.735 89.5739C96.4855 93.8574 93.9408 99.542 93.5769 105.565C93.2131 111.588 95.0551 117.538 98.7585 122.302C102.462 127.066 107.774 130.318 113.7 131.451C119.627 132.584 125.764 131.519 130.963 128.457C136.162 125.395 140.069 120.544 141.952 114.811C143.835 109.078 143.566 102.856 141.195 97.3069C138.824 91.758 134.514 87.2623 129.07 84.66V75" stroke="#FF3621" stroke-width="3" stroke-miterlimit="10"/>
</svg>
